<?xml version="1.0" encoding="UTF-8" standalone="no" ?>
<!DOCTYPE svg PUBLIC "-//W3C//DTD SVG 1.1//EN" "http://www.w3.org/Graphics/SVG/1.1/DTD/svg11.dtd">
<svg xmlns="http://www.w3.org/2000/svg" xmlns:xlink="http://www.w3.org/1999/xlink" version="1.1" width="512"
    height="512" viewBox="0 0 512 512" xml:space="preserve">
    <defs>
    </defs>
    <g transform="matrix(1 0 0 0.9974464843 257.0411453856 305.937951803)" id="YrbWKehD81EYB2xD9rRFG">
        <path
            style="stroke: rgb(255,255,255); stroke-width: 0; stroke-dasharray: none; stroke-linecap: butt; stroke-dashoffset: 0; stroke-linejoin: miter; stroke-miterlimit: 4; fill: rgb(255,255,255); fill-rule: nonzero; opacity: 1;"
            transform=" translate(0, 0)"
            d="M -187.64829 -14.60346 C -196.43037 -5.28393 -201.32311 7.05109 -201.32311 19.87193 L -201.32311 182.40717999999998 L -201.32311 182.40717999999998 C -201.32311 193.11319999999998 -192.66633000000002 201.79214 -181.98765 201.79214 L -88.59285 201.79214 L -88.59285 201.79214 C -77.13988 201.79214 -67.85542 192.48390999999998 -67.85542 181.00162 L -67.85542 55.67779 L -67.85542 55.67779 C -67.85542 18.68282 -37.941649999999996 -11.30753 -1.0411399999999986 -11.30753 L -1.0411399999999986 -11.30753 L -1.0411399999999986 -11.30753 L -1.0411399999999986 -11.30753 C 37.62881 -11.30753 68.977 20.12091 68.977 58.88986 L 68.977 179.59712000000002 L 68.977 179.59712000000002 C 68.977 191.85509000000002 78.88867 201.79213000000001 91.11534 201.79213000000001 L 181.05407000000002 201.79213000000001 L 181.05407000000002 201.79213000000001 C 192.24835000000002 201.79213000000001 201.32311 192.69414 201.32311 181.4712 L 201.32311 16.39978000000002 L 201.32311 16.39978000000002 C 201.32311 5.814430000000021 197.25539 -4.3639999999999795 189.96505000000002 -12.02089999999998 L 16.342130000000026 -194.37336 L 16.342130000000026 -194.37336 C 11.816050000000025 -199.12699999999998 5.541690000000026 -201.80903999999998 -1.0132299999999752 -201.79207 C -7.568149999999975 -201.7751 -13.828609999999975 -199.06061 -18.330139999999975 -194.2836 z"
            stroke-linecap="round" />
    </g>
    <g transform="matrix(1 0 0 1 258.4253127612 148.7322842629)" id="j-IpD4HCghkTfdeNqguA5">
        <path
            style="stroke: rgb(255,255,255); stroke-width: 0; stroke-dasharray: none; stroke-linecap: butt; stroke-dashoffset: 0; stroke-linejoin: miter; stroke-miterlimit: 4; fill: rgb(255,255,255); fill-rule: nonzero; opacity: 1;"
            transform=" translate(0, 0)"
            d="M -2.42531 -84.6961 L -212.78898 135.75737 L -212.78898 135.75737 C -215.34824 138.43938 -218.93588 139.89344 -222.64027000000002 139.75007000000002 C -226.34466 139.60670000000002 -229.80917000000002 137.87969 -232.15348 135.00789000000003 L -246.03034 118.00859000000003 L -246.03034 118.00859000000003 C -252.89616999999998 109.59787000000003 -252.23188 97.34337000000002 -244.49711 89.72412000000003 L -15.597459999999984 -135.75685 L -15.597459999999984 -135.75685 C -8.290839999999985 -142.95433999999997 3.4402100000000146 -142.95433999999997 10.746830000000017 -135.75685 L 248.49939 98.44482000000002 L 248.49939 98.44482000000002 C 251.23765 101.14218000000002 251.53575 105.45758000000002 249.1944 108.50584000000002 L 227.05725 137.32664000000003 L 227.05725 137.32664000000003 C 225.32008000000002 139.58830000000003 222.68348 140.98054000000002 219.83611000000002 141.13972000000004 C 216.98874 141.29890000000003 214.21339000000003 140.20922000000004 212.23495000000003 138.15529000000004 z"
            stroke-linecap="round" />
    </g>
</svg>